<?xml version="1.0" encoding="UTF-8" ?>
<!DOCTYPE svg PUBLIC "-//W3C//DTD SVG 1.1//EN" "http://www.w3.org/Graphics/SVG/1.1/DTD/svg11.dtd">
<svg width="493pt" height="254pt" viewBox="0 0 493 254" version="1.1" xmlns="http://www.w3.org/2000/svg">
<g id="#ffffffff">
<path fill="#ffffff" opacity="1.00" d=" M 399.93 163.61 C 401.44 160.29 403.28 157.15 404.98 153.93 C 405.61 157.10 406.34 160.25 407.01 163.41 C 404.65 163.48 402.29 163.55 399.93 163.61 Z" />
<path fill="#ffffff" opacity="1.00" d=" M 310.74 166.46 C 311.45 166.35 312.86 166.14 313.56 166.03 C 312.28 167.87 310.80 169.57 309.21 171.15 C 309.58 169.55 309.96 167.92 310.74 166.46 Z" />
</g>
<g id="#000000ff">
<path fill="#000000" opacity="1.00" d=" M 218.91 6.25 C 220.09 6.28 221.28 6.32 222.47 6.36 C 233.94 58.87 245.59 111.34 257.06 163.85 C 260.04 163.99 263.09 163.57 266.03 164.23 C 266.11 164.73 266.28 165.73 266.37 166.23 C 254.06 166.27 241.75 166.25 229.45 166.24 C 229.55 165.67 229.76 164.53 229.86 163.95 C 232.77 163.74 235.70 163.91 238.61 164.12 C 235.57 149.42 232.36 134.75 229.18 120.08 C 218.43 120.20 207.69 120.08 196.94 120.15 C 193.98 134.74 190.75 149.28 187.85 163.89 C 190.65 163.89 193.45 163.89 196.25 163.88 C 196.27 164.48 196.32 165.66 196.34 166.25 C 189.05 166.23 181.77 166.27 174.49 166.24 C 174.59 165.70 174.79 164.62 174.89 164.09 C 180.23 164.09 186.23 161.31 187.29 155.57 C 197.88 105.81 208.29 56.01 218.91 6.25 M 212.72 46.75 C 207.48 70.41 202.51 94.14 197.46 117.85 C 207.87 117.77 218.27 117.71 228.68 117.88 C 223.49 94.15 218.32 70.39 212.72 46.75 Z" />
<path fill="#000000" opacity="1.00" d=" M 387.39 6.26 C 388.57 6.29 389.76 6.33 390.96 6.36 C 400.30 48.93 409.69 91.50 419.03 134.07 C 420.92 143.12 423.23 152.10 424.84 161.21 C 424.96 162.25 425.08 163.29 425.21 164.33 C 428.17 164.07 431.15 164.08 434.13 164.34 C 433.78 165.23 433.24 166.22 432.08 166.01 C 426.01 166.14 419.93 165.97 413.85 166.01 C 414.25 165.04 414.65 164.06 415.06 163.09 C 412.38 163.21 409.69 163.33 407.01 163.41 C 406.34 160.25 405.61 157.10 404.98 153.93 C 407.26 148.69 411.83 144.93 414.24 139.75 C 410.55 136.83 404.33 136.67 401.54 140.89 C 401.44 133.88 398.87 127.06 397.71 120.13 C 386.96 120.13 376.20 120.11 365.45 120.14 C 362.46 134.82 359.21 149.45 356.30 164.15 C 359.28 164.27 362.83 162.85 365.36 165.00 C 364.04 165.69 362.64 166.50 361.09 166.28 C 355.05 166.22 349.01 166.28 342.97 166.22 C 343.11 165.68 343.38 164.61 343.52 164.07 C 349.01 164.12 355.07 160.97 355.90 155.08 C 366.42 105.48 376.85 55.86 387.39 6.26 M 365.98 117.77 C 376.41 117.82 386.85 117.77 397.29 117.80 C 391.85 94.14 386.84 70.37 381.27 46.75 C 375.93 70.36 371.05 94.09 365.98 117.77 Z" />
<path fill="#000000" opacity="1.00" d=" M 17.86 10.84 C 17.80 10.09 17.74 9.34 17.68 8.60 C 30.12 8.59 42.55 8.57 54.99 8.61 C 65.81 8.75 76.87 12.59 84.52 20.44 C 91.20 27.11 94.78 36.63 94.38 46.04 C 94.24 53.02 94.64 60.02 94.14 66.98 C 92.72 80.02 83.03 91.26 70.85 95.69 C 62.59 99.08 53.53 98.73 44.78 98.67 C 44.78 120.41 44.82 142.15 44.76 163.88 C 47.69 164.19 50.63 164.13 53.55 163.81 C 53.67 164.41 53.89 165.61 54.00 166.21 C 41.86 166.29 29.72 166.25 17.58 166.23 L 17.87 164.28 C 20.71 163.43 23.75 164.01 26.66 164.15 C 26.95 113.03 26.69 61.91 26.80 10.78 C 23.82 10.77 20.84 10.77 17.86 10.84 M 44.78 10.78 C 44.79 39.33 44.79 67.88 44.78 96.43 C 48.49 96.36 52.20 96.59 55.90 96.29 C 61.73 95.49 66.52 91.39 69.69 86.63 C 74.86 78.85 76.69 69.28 76.34 60.05 C 76.03 50.16 77.41 40.00 74.28 30.42 C 71.96 23.15 67.70 15.85 60.60 12.40 C 55.69 9.97 50.06 10.98 44.78 10.78 Z" />
<path fill="#000000" opacity="1.00" d=" M 106.66 8.63 C 118.89 8.59 131.12 8.49 143.35 8.68 C 143.17 9.19 142.80 10.21 142.62 10.72 C 139.70 10.89 136.78 10.75 133.86 10.78 C 133.86 61.81 133.85 112.83 133.87 163.85 C 140.91 163.94 147.96 163.88 155.00 163.89 C 158.97 164.20 162.17 161.19 164.17 158.08 C 168.55 151.23 169.80 142.91 169.98 134.91 C 170.53 134.82 171.65 134.64 172.21 134.55 C 172.24 145.12 172.18 155.69 172.24 166.25 C 150.36 166.22 128.48 166.30 106.61 166.21 L 106.98 164.43 C 109.67 163.22 112.82 164.12 115.69 164.17 C 115.99 113.02 115.82 61.87 115.78 10.72 C 112.84 10.77 109.89 10.92 106.95 10.65 L 106.66 8.63 Z" />
<path fill="#000000" opacity="1.00" d=" M 273.27 8.64 C 295.37 8.52 317.48 8.64 339.59 8.58 C 323.25 60.33 307.08 112.13 290.71 163.87 C 293.75 163.91 296.79 163.91 299.83 163.88 C 299.62 164.47 299.21 165.66 299.01 166.25 C 289.70 166.22 280.39 166.30 271.09 166.21 C 287.47 114.43 303.66 62.59 319.98 10.79 C 310.34 10.77 300.69 10.78 291.05 10.78 C 287.51 10.56 284.42 12.74 282.37 15.43 C 277.06 22.55 275.76 31.77 275.50 40.42 C 274.97 40.28 273.93 39.99 273.40 39.84 C 273.20 29.45 273.47 19.04 273.27 8.64 Z" />
<path fill="#000000" opacity="1.00" d=" M 334.60 142.97 C 335.43 141.06 336.29 139.17 337.15 137.27 C 337.52 146.92 337.20 156.60 337.32 166.26 C 331.07 166.25 324.82 166.24 318.57 166.26 C 319.34 165.53 320.12 164.82 320.94 164.15 C 330.29 161.89 332.93 151.16 334.60 142.97 Z" />
<path fill="#000000" opacity="1.00" d=" M 307.93 165.08 C 308.23 164.73 308.85 164.02 309.16 163.67 L 309.81 164.13 C 311.17 165.65 307.82 167.46 307.93 165.08 Z" />
<path fill="#000000" opacity="1.00" d=" M 310.74 166.46 C 311.04 165.91 311.64 164.82 311.93 164.27 C 312.77 164.17 314.45 163.96 315.29 163.85 C 314.85 164.71 314.28 165.44 313.56 166.03 C 312.86 166.14 311.45 166.35 310.74 166.46 Z" />
<path fill="#000000" opacity="1.00" d=" M 28.81 211.12 C 31.06 206.39 33.27 201.63 35.82 197.05 C 38.10 201.79 40.40 206.51 42.77 211.21 C 47.95 212.03 53.15 212.79 58.35 213.48 C 55.00 217.66 50.32 220.75 47.23 225.06 C 47.95 230.21 48.94 235.31 49.85 240.43 C 45.14 238.02 40.47 235.53 35.81 233.03 C 31.07 235.45 26.39 237.99 21.66 240.44 C 22.52 235.23 23.32 230.00 24.41 224.82 C 20.73 220.91 16.65 217.41 12.97 213.51 C 18.26 212.75 23.56 212.10 28.81 211.12 Z" />
<path fill="#000000" opacity="1.00" d=" M 82.78 211.14 C 85.07 206.42 87.24 201.63 89.82 197.06 C 92.11 201.80 94.39 206.54 96.79 211.22 C 101.97 212.03 107.17 212.79 112.37 213.49 C 108.99 217.64 104.35 220.76 101.23 225.06 C 101.94 230.17 102.96 235.25 103.81 240.35 C 99.06 238.06 94.46 235.47 89.78 233.03 C 85.06 235.47 80.38 237.99 75.66 240.45 C 76.52 235.23 77.33 229.99 78.41 224.81 C 74.72 220.91 70.65 217.41 66.97 213.50 C 72.25 212.76 77.54 212.09 82.78 211.14 Z" />
<path fill="#000000" opacity="1.00" d=" M 143.81 211.12 C 146.06 206.39 148.26 201.63 150.82 197.05 C 153.11 201.79 155.39 206.54 157.80 211.23 C 163.02 212.03 168.24 212.81 173.48 213.50 C 169.92 217.52 165.46 220.78 162.22 225.01 C 162.96 230.17 163.93 235.29 164.85 240.42 C 160.13 238.02 155.47 235.52 150.80 233.03 C 146.06 235.46 141.38 237.99 136.65 240.45 C 137.53 235.23 138.32 230.00 139.41 224.82 C 135.74 220.91 131.64 217.42 127.98 213.50 C 133.26 212.75 138.56 212.10 143.81 211.12 Z" />
<path fill="#000000" opacity="1.00" d=" M 199.79 211.14 C 202.07 206.42 204.24 201.63 206.83 197.06 C 209.11 201.80 211.40 206.53 213.79 211.22 C 219.01 212.03 224.24 212.81 229.48 213.50 C 225.90 217.49 221.56 220.79 218.20 224.95 C 218.96 230.12 219.93 235.26 220.84 240.42 C 216.12 238.03 211.46 235.51 206.80 233.02 C 202.06 235.46 197.38 237.99 192.66 240.44 C 193.52 235.22 194.32 229.98 195.40 224.80 C 191.71 220.91 187.65 217.40 183.97 213.50 C 189.25 212.76 194.54 212.09 199.79 211.14 Z" />
</g>
<g id="#ff5c5cff">
<path fill="#ff5c5c" opacity="1.00" d=" M 320.62 124.57 C 324.06 119.81 327.88 114.36 333.94 112.91 C 336.84 112.13 340.04 114.11 340.53 117.09 C 341.59 123.98 339.34 130.82 337.15 137.27 C 336.29 139.17 335.43 141.06 334.60 142.97 C 330.76 150.44 326.77 158.01 320.94 164.15 C 320.12 164.82 319.34 165.53 318.57 166.26 C 315.50 170.59 311.75 174.35 307.84 177.92 C 305.97 179.51 304.91 181.77 304.24 184.09 C 302.55 189.67 300.47 195.14 299.29 200.85 C 304.18 193.08 310.17 186.10 316.07 179.08 C 318.42 176.55 320.73 173.65 324.06 172.39 C 328.28 170.96 331.87 176.28 330.11 180.00 C 327.70 186.49 323.84 192.40 321.87 199.06 C 321.67 203.27 319.92 207.21 319.96 211.44 C 321.33 211.26 322.66 210.77 323.64 209.74 C 327.30 206.37 330.53 202.56 333.84 198.85 C 337.49 194.87 338.45 189.12 342.49 185.43 C 344.75 182.77 348.05 181.57 351.12 180.15 C 352.96 175.53 355.61 170.64 360.36 168.49 C 365.18 167.23 369.35 171.50 371.70 175.23 C 373.99 180.98 370.87 187.03 369.96 192.77 C 372.67 192.19 375.38 191.60 378.11 191.11 C 382.08 183.61 383.91 175.19 387.34 167.44 C 379.60 167.52 371.78 169.34 364.14 167.17 C 365.63 165.78 367.59 165.11 369.59 164.90 C 375.95 164.19 382.39 164.51 388.74 163.64 C 391.43 159.52 392.37 154.37 395.52 150.47 C 397.99 147.57 399.12 143.82 401.54 140.89 C 404.33 136.67 410.55 136.83 414.24 139.75 C 411.83 144.93 407.26 148.69 404.98 153.93 C 403.28 157.15 401.44 160.29 399.93 163.61 C 402.29 163.55 404.65 163.48 407.01 163.41 C 409.69 163.33 412.38 163.21 415.06 163.09 C 414.65 164.06 414.25 165.04 413.85 166.01 C 419.93 165.97 426.01 166.14 432.08 166.01 C 433.24 166.22 433.78 165.23 434.13 164.34 C 431.15 164.08 428.17 164.07 425.21 164.33 C 425.08 163.29 424.96 162.25 424.84 161.21 C 427.01 164.89 431.64 163.99 435.21 163.46 C 435.01 164.76 434.85 166.06 434.61 167.36 C 431.12 166.49 427.54 166.84 424.00 166.72 C 417.67 167.42 411.29 165.58 405.05 167.10 C 402.66 167.55 399.73 165.95 397.77 167.79 C 390.66 185.14 383.20 202.56 379.62 221.07 C 379.49 222.54 379.52 224.01 379.70 225.48 C 381.10 225.13 382.46 224.53 383.27 223.26 C 392.16 213.36 400.38 202.85 408.16 192.05 C 411.27 186.47 414.07 180.27 419.55 176.58 C 423.58 173.76 429.68 174.27 432.97 177.98 C 435.32 181.00 433.84 185.17 431.94 188.01 C 427.87 193.45 422.30 197.87 415.79 199.96 C 414.75 204.82 413.21 209.86 413.48 214.89 C 413.45 217.36 416.51 217.23 418.00 216.14 C 422.89 213.17 427.23 209.16 430.31 204.33 C 433.89 199.56 437.95 195.13 441.15 190.07 C 445.85 177.82 449.00 164.89 455.31 153.29 C 457.92 147.78 461.76 143.02 464.73 137.72 C 467.17 134.54 469.51 130.12 473.98 129.74 C 478.72 130.36 481.50 135.58 481.13 140.01 C 480.58 147.42 476.56 153.87 473.41 160.40 C 471.45 164.56 467.99 167.75 465.86 171.82 C 461.57 179.38 456.13 186.19 451.14 193.27 C 448.70 200.62 446.20 208.18 446.04 216.01 C 445.79 219.51 445.03 223.30 446.58 226.62 C 448.07 229.05 451.21 227.27 452.72 225.78 C 460.15 218.22 465.48 208.94 471.11 200.03 C 473.52 196.42 474.95 192.14 478.11 189.05 C 480.62 192.64 477.54 196.51 475.77 199.67 C 469.49 210.43 463.12 221.39 454.07 230.10 C 451.38 232.57 447.80 234.86 443.99 234.09 C 439.98 233.16 437.58 229.22 436.79 225.42 C 435.76 219.94 436.21 214.28 437.30 208.84 C 437.77 206.27 438.73 203.75 438.53 201.10 C 439.12 200.96 440.31 200.69 440.90 200.55 C 440.25 204.00 439.62 207.46 439.39 210.98 C 440.09 206.97 440.54 202.90 441.87 199.04 L 441.18 200.73 C 440.49 199.92 439.82 199.09 439.17 198.27 C 436.38 202.39 433.02 206.06 429.91 209.94 C 426.63 214.43 423.19 219.35 417.91 221.60 C 413.25 222.78 408.54 219.64 406.16 215.79 C 403.88 212.14 404.74 207.67 405.56 203.72 C 405.70 205.91 405.80 208.10 406.20 210.26 C 407.37 206.61 408.41 202.84 408.28 198.97 C 407.59 200.75 406.83 202.49 406.01 204.21 C 405.92 203.38 405.73 201.73 405.63 200.90 C 400.41 209.95 393.75 218.07 387.30 226.26 C 384.92 228.93 382.79 232.52 379.04 233.29 C 375.18 232.92 371.58 229.88 371.11 225.94 C 370.35 219.14 372.80 212.57 374.10 205.99 C 374.82 202.27 375.69 198.58 376.96 195.01 C 374.09 195.41 371.08 195.35 368.39 196.51 C 365.86 199.95 363.95 203.88 360.61 206.67 C 357.39 210.85 353.21 214.68 347.98 216.02 C 341.20 217.02 335.50 211.22 334.03 205.01 C 330.43 210.03 327.82 216.02 322.77 219.81 C 318.57 222.14 314.20 218.30 311.99 214.94 C 309.15 210.21 311.50 204.80 312.77 199.98 C 314.70 192.16 320.42 186.01 322.41 178.21 C 316.42 183.01 312.92 190.11 307.23 195.22 C 303.71 200.76 299.39 205.77 296.38 211.63 C 295.31 213.86 291.84 212.92 291.00 210.93 C 289.88 207.78 290.39 204.31 290.70 201.05 C 292.59 189.27 295.15 177.56 299.01 166.25 C 299.21 165.66 299.62 164.47 299.83 163.88 C 302.54 156.30 306.70 149.37 310.11 142.12 C 312.31 135.57 316.82 130.22 320.62 124.57 M 332.69 121.64 C 326.82 130.78 322.31 140.70 317.22 150.29 C 314.81 154.68 313.09 159.41 311.93 164.27 C 311.64 164.82 311.04 165.91 310.74 166.46 C 309.96 167.92 309.58 169.55 309.21 171.15 C 310.80 169.57 312.28 167.87 313.56 166.03 C 314.28 165.44 314.85 164.71 315.29 163.85 C 317.80 161.13 319.84 158.02 321.89 154.96 C 327.02 146.70 332.00 138.24 335.08 128.97 C 336.07 125.86 337.21 122.61 336.68 119.30 C 334.76 117.95 333.71 120.41 332.69 121.64 M 321.66 136.66 C 317.33 145.58 311.94 154.08 309.16 163.67 C 308.85 164.02 308.23 164.73 307.93 165.08 C 307.82 167.46 311.17 165.65 309.81 164.13 C 315.31 150.34 323.01 137.59 328.86 123.96 C 325.91 127.86 324.01 132.40 321.66 136.66 M 467.10 147.16 C 462.27 157.88 458.44 169.03 455.09 180.29 C 457.33 177.68 458.95 174.63 460.77 171.73 C 466.04 162.73 471.38 153.66 474.88 143.78 C 475.65 141.05 476.97 137.85 475.18 135.22 C 471.30 138.27 469.11 142.78 467.10 147.16 M 358.40 177.37 C 356.56 181.65 353.90 186.12 354.78 190.96 C 355.95 193.88 359.66 193.21 362.17 193.64 C 364.66 189.10 365.51 183.92 366.45 178.90 C 366.67 176.64 367.17 173.46 364.74 172.17 C 361.82 172.32 359.76 175.05 358.40 177.37 M 426.47 178.38 C 421.76 182.97 419.55 189.42 417.35 195.47 C 422.70 192.06 429.64 187.30 428.66 180.04 C 428.63 178.99 427.61 177.50 426.47 178.38 M 381.12 207.19 C 383.93 198.67 387.49 190.40 389.96 181.78 C 386.20 189.90 382.72 198.34 381.12 207.19 M 349.56 188.80 C 346.53 194.94 342.96 201.15 342.14 208.05 C 341.54 210.37 343.78 212.33 346.01 211.41 C 353.27 209.39 357.72 202.52 361.01 196.21 C 356.29 195.45 351.84 193.18 349.56 188.80 Z" />
</g>
</svg>
